<?xml version="1.0" encoding="UTF-8" standalone="no"?>
<svg
   xmlns:ooo="http://xml.openoffice.org/svg/export"
   xmlns:dc="http://purl.org/dc/elements/1.1/"
   xmlns:cc="http://creativecommons.org/ns#"
   xmlns:rdf="http://www.w3.org/1999/02/22-rdf-syntax-ns#"
   xmlns:svg="http://www.w3.org/2000/svg"
   xmlns="http://www.w3.org/2000/svg"
   xmlns:sodipodi="http://sodipodi.sourceforge.net/DTD/sodipodi-0.dtd"
   xmlns:inkscape="http://www.inkscape.org/namespaces/inkscape"
   version="1.2"
   width="20"
   height="20"
   viewBox="0 0 564.44444 564.44444"
   preserveAspectRatio="xMidYMid"
   clip-path="url(#presentation_clip_path)"
   xml:space="preserve"
   id="svg3023"
   inkscape:version="0.48.4 r9939"
   sodipodi:docname="beacon_small.svg"
   style="fill-rule:evenodd;stroke-width:28.22200012;stroke-linejoin:round"><metadata
     id="metadata3153"><rdf:RDF><cc:Work
         rdf:about=""><dc:format>image/svg+xml</dc:format><dc:type
           rdf:resource="http://purl.org/dc/dcmitype/StillImage" /></cc:Work></rdf:RDF></metadata><sodipodi:namedview
     pagecolor="#ffffff"
     bordercolor="#666666"
     borderopacity="1"
     objecttolerance="10"
     gridtolerance="10"
     guidetolerance="10"
     inkscape:pageopacity="0"
     inkscape:pageshadow="2"
     inkscape:window-width="1498"
     inkscape:window-height="846"
     id="namedview3151"
     showgrid="false"
     inkscape:zoom="19.671809"
     inkscape:cx="14.928703"
     inkscape:cy="6.1276337"
     inkscape:window-x="0"
     inkscape:window-y="0"
     inkscape:window-maximized="0"
     inkscape:current-layer="svg3023" /><defs
     class="ClipPathGroup"
     id="defs3025"><clipPath
       id="presentation_clip_path"
       clipPathUnits="userSpaceOnUse"><rect
         x="0"
         y="0"
         width="2540"
         height="2540"
         id="rect3028" /></clipPath></defs><defs
     class="TextShapeIndex"
     id="defs3030"><g
       ooo:slide="id1"
       ooo:id-list="id3 id4 id5 id6 id7 id8 id9 id10"
       id="g3032" /></defs><defs
     class="EmbeddedBulletChars"
     id="defs3034"><g
       id="bullet-char-template(57356)"
       transform="scale(4.8828125e-4,-4.8828125e-4)"><path
         d="M 580,1141 1163,571 580,0 -4,571 580,1141 z"
         id="path3037"
         inkscape:connector-curvature="0" /></g><g
       id="bullet-char-template(57354)"
       transform="scale(4.8828125e-4,-4.8828125e-4)"><path
         d="m 8,1128 1129,0 L 1137,0 8,0 8,1128 z"
         id="path3040"
         inkscape:connector-curvature="0" /></g><g
       id="bullet-char-template(10146)"
       transform="scale(4.8828125e-4,-4.8828125e-4)"><path
         d="M 174,0 602,739 174,1481 1456,739 174,0 z m 1184,739 -1049,607 350,-607 699,0 z"
         id="path3043"
         inkscape:connector-curvature="0" /></g><g
       id="bullet-char-template(10132)"
       transform="scale(4.8828125e-4,-4.8828125e-4)"><path
         d="M 2015,739 1276,0 717,0 l 543,543 -1086,0 0,393 1086,0 -543,545 557,0 741,-742 z"
         id="path3046"
         inkscape:connector-curvature="0" /></g><g
       id="bullet-char-template(10007)"
       transform="scale(4.8828125e-4,-4.8828125e-4)"><path
         d="m 0,-2 c -7,16 -16,29 -25,39 l 381,530 c -94,256 -141,385 -141,387 0,25 13,38 40,38 9,0 21,-2 34,-5 21,4 42,12 65,25 l 27,-13 111,-251 280,301 64,-25 24,25 c 21,-10 41,-24 62,-43 C 886,937 835,863 770,784 769,783 710,716 594,584 L 774,223 c 0,-27 -21,-55 -63,-84 l 16,-20 C 717,90 699,76 672,76 641,76 570,178 457,381 L 164,-76 c -22,-34 -53,-51 -92,-51 -42,0 -63,17 -64,51 -7,9 -10,24 -10,44 0,9 1,19 2,30 z"
         id="path3049"
         inkscape:connector-curvature="0" /></g><g
       id="bullet-char-template(10004)"
       transform="scale(4.8828125e-4,-4.8828125e-4)"><path
         d="M 285,-33 C 182,-33 111,30 74,156 52,228 41,333 41,471 c 0,78 14,145 41,201 34,71 87,106 158,106 53,0 88,-31 106,-94 l 23,-176 c 8,-64 28,-97 59,-98 l 735,706 c 11,11 33,17 66,17 42,0 63,-15 63,-46 l 0,-122 c 0,-36 -10,-64 -30,-84 L 442,47 C 390,-6 338,-33 285,-33 z"
         id="path3052"
         inkscape:connector-curvature="0" /></g><g
       id="bullet-char-template(9679)"
       transform="scale(4.8828125e-4,-4.8828125e-4)"><path
         d="M 813,0 C 632,0 489,54 383,161 276,268 223,411 223,592 c 0,181 53,324 160,431 106,107 249,161 430,161 179,0 323,-54 432,-161 108,-107 162,-251 162,-431 0,-180 -54,-324 -162,-431 C 1136,54 992,0 813,0 z"
         id="path3055"
         inkscape:connector-curvature="0" /></g><g
       id="bullet-char-template(8226)"
       transform="scale(4.8828125e-4,-4.8828125e-4)"><path
         d="m 346,457 c -73,0 -137,26 -191,78 -54,51 -81,114 -81,188 0,73 27,136 81,188 54,52 118,78 191,78 73,0 134,-26 185,-79 51,-51 77,-114 77,-187 0,-75 -25,-137 -76,-188 -50,-52 -112,-78 -186,-78 z"
         id="path3058"
         inkscape:connector-curvature="0" /></g><g
       id="bullet-char-template(8211)"
       transform="scale(4.8828125e-4,-4.8828125e-4)"><path
         d="m -4,459 1139,0 0,147 -1139,0 0,-147 z"
         id="path3061"
         inkscape:connector-curvature="0" /></g></defs><defs
     class="TextEmbeddedBitmaps"
     id="defs3063" /><g
     id="g3065"
     transform="translate(0,-1975.5556)"><g
       id="id2"
       class="Master_Slide"><g
         id="bg-id2"
         class="Background" /><g
         id="bo-id2"
         class="BackgroundObjects" /></g></g><g
     class="SlideGroup"
     id="g3070"
     transform="translate(-966.74381,-995.53443)"><g
       id="g3072"><g
         id="id1"
         class="Slide"
         clip-path="url(#presentation_clip_path)"><g
           class="Page"
           id="g3075"><g
             class="Group"
             id="g3077"><g
               class="com.sun.star.drawing.CustomShape"
               id="g3079"><g
                 id="id3"><path
                   d="m 4445,3452 c 237,-56 541,49 654,317 113,268 -23,561 -227,693 306,-130 461,-465 344,-742 -117,-278 -465,-399 -771,-268 l 0,0 z m 558,-237 0,0 z m -131,1247 0,0 z"
                   id="path3082"
                   inkscape:connector-curvature="0"
                   style="fill:#0084d1;stroke:none" /><path
                   d="m 4445,3452 c 237,-56 541,49 654,317 113,268 -23,561 -227,693 306,-130 461,-465 344,-742 -117,-278 -465,-399 -771,-268 l 0,0 z"
                   id="path3084"
                   inkscape:connector-curvature="0"
                   style="fill:none;stroke:#3465af;stroke-width:102" /></g></g><g
               class="com.sun.star.drawing.CustomShape"
               id="g3086"><g
                 id="id4"><path
                   d="m 4991,3253 c 217,-36 501,87 623,374 121,285 13,575 -164,707 286,-122 417,-465 292,-762 -127,-297 -465,-440 -751,-319 l 0,0 z m 521,-221 0,0 z m -62,1302 0,0 z"
                   id="path3089"
                   inkscape:connector-curvature="0"
                   style="fill:#83caff;stroke:none" /><path
                   d="m 4991,3253 c 217,-36 501,87 623,374 121,285 13,575 -164,707 286,-122 417,-465 292,-762 -127,-297 -465,-440 -751,-319 l 0,0 z"
                   id="path3091"
                   inkscape:connector-curvature="0"
                   style="fill:none;stroke:#729fcf;stroke-width:102" /></g></g><g
               class="com.sun.star.drawing.CustomShape"
               id="g3093"><g
                 id="id5"><path
                   d="m 4442,3824 c 144,0 254,110 254,254 0,144 -110,254 -254,254 -144,0 -254,-110 -254,-254 0,-144 110,-254 254,-254 z m -254,0 0,0 z m 509,509 0,0 z"
                   id="path3096"
                   inkscape:connector-curvature="0"
                   style="fill:#3465a4;stroke:none" /><path
                   d="m 4442,3824 c 144,0 254,110 254,254 0,144 -110,254 -254,254 -144,0 -254,-110 -254,-254 0,-144 110,-254 254,-254 z"
                   id="path3098"
                   inkscape:connector-curvature="0"
                   style="fill:none;stroke:#3465af" /><path
                   d="m 4188,3824 0,0 z"
                   id="path3100"
                   inkscape:connector-curvature="0"
                   style="fill:none;stroke:#3465af" /><path
                   d="m 4697,4333 0,0 z"
                   id="path3102"
                   inkscape:connector-curvature="0"
                   style="fill:none;stroke:#3465af" /></g></g><g
               class="com.sun.star.drawing.CustomShape"
               id="g3104"><g
                 id="id6"><path
                   d="m 4436,3824 134,763 -255,0 121,-763 z m -121,0 0,0 z m 255,763 0,0 z"
                   id="path3107"
                   inkscape:connector-curvature="0"
                   style="fill:#3465a4;stroke:none" /><path
                   d="m 4436,3824 134,763 -255,0 121,-763 z"
                   id="path3109"
                   inkscape:connector-curvature="0"
                   style="fill:none;stroke:#3465af" /><path
                   d="m 4315,3824 0,0 z"
                   id="path3111"
                   inkscape:connector-curvature="0"
                   style="fill:none;stroke:#3465af" /><path
                   d="m 4570,4587 0,0 z"
                   id="path3113"
                   inkscape:connector-curvature="0"
                   style="fill:none;stroke:#3465af" /></g></g></g><g
             class="com.sun.star.drawing.CustomShape"
             id="g3115"><g
               id="id7"><path
                 d="m 1078,1145 c 72,-18 164,15 198,96 33,80 -9,170 -71,210 94,-40 140,-141 106,-225 -35,-85 -139,-121 -233,-81 l 0,0 z m 169,-72 0,0 z m -42,378 0,0 z"
                 id="path3118"
                 inkscape:connector-curvature="0"
                 style="fill:#0084d1;stroke:none" /><path
                 d="m 1078,1145 c 72,-18 164,15 198,96 33,80 -9,170 -71,210 94,-40 140,-141 106,-225 -35,-85 -139,-121 -233,-81 l 0,0 z"
                 id="path3120"
                 inkscape:connector-curvature="0"
                 style="fill:none;stroke:#3465af;stroke-width:51" /></g></g><g
             class="com.sun.star.drawing.CustomShape"
             id="g3122"><g
               id="id8"><path
                 d="m 1239,1087 c 67,-12 154,25 193,112 37,86 5,173 -49,214 87,-37 126,-142 87,-231 -39,-89 -144,-132 -231,-95 l 0,0 z m 159,-67 0,0 z m -15,393 0,0 z"
                 id="path3125"
                 inkscape:connector-curvature="0"
                 style="fill:#83caff;stroke:none" /><path
                 d="m 1239,1087 c 67,-12 154,25 193,112 37,86 5,173 -49,214 87,-37 126,-142 87,-231 -39,-89 -144,-132 -231,-95 l 0,0 z"
                 id="path3127"
                 inkscape:connector-curvature="0"
                 style="fill:none;stroke:#729fcf;stroke-width:51" /></g></g><g
             class="com.sun.star.drawing.CustomShape"
             id="g3129"><g
               id="id9"><path
                 d="m 1075,1258 c 43,0 77,33 77,76 0,43 -34,77 -77,77 -43,0 -76,-34 -76,-77 0,-43 33,-76 76,-76 z m -76,0 0,0 z m 154,154 0,0 z"
                 id="path3132"
                 inkscape:connector-curvature="0"
                 style="fill:#3465a4;stroke:none" /><path
                 d="m 1075,1258 c 43,0 77,33 77,76 0,43 -34,77 -77,77 -43,0 -76,-34 -76,-77 0,-43 33,-76 76,-76 z"
                 id="path3134"
                 inkscape:connector-curvature="0"
                 style="fill:none;stroke:#3465af" /><path
                 d="m 999,1258 0,0 z"
                 id="path3136"
                 inkscape:connector-curvature="0"
                 style="fill:none;stroke:#3465af" /><path
                 d="m 1153,1412 0,0 z"
                 id="path3138"
                 inkscape:connector-curvature="0"
                 style="fill:none;stroke:#3465af" /></g></g><g
             class="com.sun.star.drawing.CustomShape"
             id="g3140"><g
               id="id10"><path
                 d="m 1075,1258 41,230 -77,0 36,-230 z m -36,0 0,0 z m 77,230 0,0 z"
                 id="path3143"
                 inkscape:connector-curvature="0"
                 style="fill:#3465a4;stroke:none" /><path
                 d="m 1075,1258 41,230 -77,0 36,-230 z"
                 id="path3145"
                 inkscape:connector-curvature="0"
                 style="fill:none;stroke:#3465af" /><path
                 d="m 1039,1258 0,0 z"
                 id="path3147"
                 inkscape:connector-curvature="0"
                 style="fill:none;stroke:#3465af" /><path
                 d="m 1116,1488 0,0 z"
                 id="path3149"
                 inkscape:connector-curvature="0"
                 style="fill:none;stroke:#3465af" /></g></g></g></g></g></g></svg>