<?xml version="1.0" encoding="UTF-8" standalone="no"?>
<svg
   xmlns:ooo="http://xml.openoffice.org/svg/export"
   xmlns:dc="http://purl.org/dc/elements/1.1/"
   xmlns:cc="http://creativecommons.org/ns#"
   xmlns:rdf="http://www.w3.org/1999/02/22-rdf-syntax-ns#"
   xmlns:svg="http://www.w3.org/2000/svg"
   xmlns="http://www.w3.org/2000/svg"
   xmlns:sodipodi="http://sodipodi.sourceforge.net/DTD/sodipodi-0.dtd"
   xmlns:inkscape="http://www.inkscape.org/namespaces/inkscape"
   version="1.2"
   width="18"
   height="18"
   viewBox="0 0 507.99999 507.99999"
   preserveAspectRatio="xMidYMid"
   clip-path="url(#presentation_clip_path)"
   xml:space="preserve"
   id="svg2985"
   inkscape:version="0.48.4 r9939"
   sodipodi:docname="repeater_violet.svg"
   style="fill-rule:evenodd;stroke-width:28.22200012;stroke-linejoin:round"><metadata
     id="metadata3057"><rdf:RDF><cc:Work
         rdf:about=""><dc:format>image/svg+xml</dc:format><dc:type
           rdf:resource="http://purl.org/dc/dcmitype/StillImage" /></cc:Work></rdf:RDF></metadata><sodipodi:namedview
     pagecolor="#ffffff"
     bordercolor="#666666"
     borderopacity="1"
     objecttolerance="10"
     gridtolerance="10"
     guidetolerance="10"
     inkscape:pageopacity="0"
     inkscape:pageshadow="2"
     inkscape:window-width="1600"
     inkscape:window-height="850"
     id="namedview3055"
     showgrid="false"
     inkscape:zoom="18.941891"
     inkscape:cx="5.9073498"
     inkscape:cy="6.9748734"
     inkscape:window-x="0"
     inkscape:window-y="0"
     inkscape:window-maximized="1"
     inkscape:current-layer="svg2985" /><defs
     class="ClipPathGroup"
     id="defs2987"><clipPath
       id="presentation_clip_path"
       clipPathUnits="userSpaceOnUse"><rect
         x="0"
         y="0"
         width="2794"
         height="2794"
         id="rect2990" /></clipPath><clipPath
       id="presentation_clip_path-3"
       clipPathUnits="userSpaceOnUse"><rect
         x="0"
         y="0"
         width="2794"
         height="2794"
         id="rect2990-1" /></clipPath></defs><defs
     class="TextShapeIndex"
     id="defs2992"><g
       ooo:slide="id1"
       ooo:id-list="id3 id4"
       id="g2994" /></defs><defs
     class="EmbeddedBulletChars"
     id="defs2996"><g
       id="bullet-char-template(57356)"
       transform="scale(4.8828125e-4,-4.8828125e-4)"><path
         d="M 580,1141 1163,571 580,0 -4,571 580,1141 z"
         id="path2999"
         inkscape:connector-curvature="0" /></g><g
       id="bullet-char-template(57354)"
       transform="scale(4.8828125e-4,-4.8828125e-4)"><path
         d="m 8,1128 1129,0 L 1137,0 8,0 8,1128 z"
         id="path3002"
         inkscape:connector-curvature="0" /></g><g
       id="bullet-char-template(10146)"
       transform="scale(4.8828125e-4,-4.8828125e-4)"><path
         d="M 174,0 602,739 174,1481 1456,739 174,0 z m 1184,739 -1049,607 350,-607 699,0 z"
         id="path3005"
         inkscape:connector-curvature="0" /></g><g
       id="bullet-char-template(10132)"
       transform="scale(4.8828125e-4,-4.8828125e-4)"><path
         d="M 2015,739 1276,0 717,0 l 543,543 -1086,0 0,393 1086,0 -543,545 557,0 741,-742 z"
         id="path3008"
         inkscape:connector-curvature="0" /></g><g
       id="bullet-char-template(10007)"
       transform="scale(4.8828125e-4,-4.8828125e-4)"><path
         d="m 0,-2 c -7,16 -16,29 -25,39 l 381,530 c -94,256 -141,385 -141,387 0,25 13,38 40,38 9,0 21,-2 34,-5 21,4 42,12 65,25 l 27,-13 111,-251 280,301 64,-25 24,25 c 21,-10 41,-24 62,-43 C 886,937 835,863 770,784 769,783 710,716 594,584 L 774,223 c 0,-27 -21,-55 -63,-84 l 16,-20 C 717,90 699,76 672,76 641,76 570,178 457,381 L 164,-76 c -22,-34 -53,-51 -92,-51 -42,0 -63,17 -64,51 -7,9 -10,24 -10,44 0,9 1,19 2,30 z"
         id="path3011"
         inkscape:connector-curvature="0" /></g><g
       id="bullet-char-template(10004)"
       transform="scale(4.8828125e-4,-4.8828125e-4)"><path
         d="M 285,-33 C 182,-33 111,30 74,156 52,228 41,333 41,471 c 0,78 14,145 41,201 34,71 87,106 158,106 53,0 88,-31 106,-94 l 23,-176 c 8,-64 28,-97 59,-98 l 735,706 c 11,11 33,17 66,17 42,0 63,-15 63,-46 l 0,-122 c 0,-36 -10,-64 -30,-84 L 442,47 C 390,-6 338,-33 285,-33 z"
         id="path3014"
         inkscape:connector-curvature="0" /></g><g
       id="bullet-char-template(9679)"
       transform="scale(4.8828125e-4,-4.8828125e-4)"><path
         d="M 813,0 C 632,0 489,54 383,161 276,268 223,411 223,592 c 0,181 53,324 160,431 106,107 249,161 430,161 179,0 323,-54 432,-161 108,-107 162,-251 162,-431 0,-180 -54,-324 -162,-431 C 1136,54 992,0 813,0 z"
         id="path3017"
         inkscape:connector-curvature="0" /></g><g
       id="bullet-char-template(8226)"
       transform="scale(4.8828125e-4,-4.8828125e-4)"><path
         d="m 346,457 c -73,0 -137,26 -191,78 -54,51 -81,114 -81,188 0,73 27,136 81,188 54,52 118,78 191,78 73,0 134,-26 185,-79 51,-51 77,-114 77,-187 0,-75 -25,-137 -76,-188 -50,-52 -112,-78 -186,-78 z"
         id="path3020"
         inkscape:connector-curvature="0" /></g><g
       id="bullet-char-template(8211)"
       transform="scale(4.8828125e-4,-4.8828125e-4)"><path
         d="m -4,459 1139,0 0,147 -1139,0 0,-147 z"
         id="path3023"
         inkscape:connector-curvature="0" /></g></defs><defs
     class="TextEmbeddedBitmaps"
     id="defs3025" /><g
     id="g3027"
     transform="translate(0,-2286.0001)"><g
       id="id2"
       class="Master_Slide"><g
         id="bg-id2"
         class="Background" /><g
         id="bo-id2"
         class="BackgroundObjects" /></g></g><g
     style="fill-rule:evenodd;stroke-width:28.22200012;stroke-linejoin:round"
     id="id1"
     class="Slide"
     clip-path="url(#presentation_clip_path-3)"
     transform="matrix(1.0816723,0,0,1.4277576,-1309.6977,-1726.1594)"><g
       class="Page"
       id="g3037"><g
         class="Group"
         id="g3039"><g
           class="com.sun.star.drawing.CustomShape"
           id="g3041"><g
             id="id3"><path
               d="m 1380,1254 c 38,32 76,59 76,127 0,68 -38,95 -76,128 141,0 255,-58 255,-128 0,-70 -114,-127 -255,-127 l 0,0 z m 255,0 0,0 z m -255,255 0,0 z"
               id="path3044"
               inkscape:connector-curvature="0"
               style="fill:#993366;stroke:none" /><path
               d="m 1380,1254 c 38,32 76,59 76,127 0,68 -38,95 -76,128 141,0 255,-58 255,-128 0,-70 -114,-127 -255,-127 l 0,0 z"
               id="path3046"
               inkscape:connector-curvature="0"
               style="fill:none;stroke:#2c001e;stroke-width:51" /></g></g><g
           class="com.sun.star.drawing.CustomShape"
           id="g3048"><g
             id="id4"><path
               d="m 1254,1283 c 30,0 60,43 60,91 0,48 -30,92 -60,92 33,0 60,-42 60,-92 0,-50 -27,-91 -60,-91 l 0,0 z m 60,0 0,0 z m -61,183 0,0 z"
               id="path3051"
               inkscape:connector-curvature="0"
               style="fill:#4b1f6f;stroke:none" /><path
               d="m 1254,1283 c 30,0 60,43 60,91 0,48 -30,92 -60,92 33,0 60,-42 60,-92 0,-50 -27,-91 -60,-91 l 0,0 z"
               id="path3053"
               inkscape:connector-curvature="0"
               style="fill:none;stroke:#800080;stroke-width:51" /></g></g></g></g></g></svg>